name Visual3d_SIMM_grf.mot
datacolumns 19
datarows 22
range 0.760000 0.970000
endheader
time	ground_force_vx	ground_force_vy	ground_force_vz	ground_force_px	ground_force_py	ground_force_pz	l_ground_force_vx	l_ground_force_vy	l_ground_force_vz	l_ground_force_px	l_ground_force_py	l_ground_force_pz	ground_torque_x	ground_torque_y	ground_torque_z	l_ground_torque_x	l_ground_torque_y	l_ground_torque_z
0.760000	0.000000	0.000000	0.000000	0.000000	0.000000	0.000000	-12.323109	155.711929	-9.970172	0.509308	-0.007248	-0.345984	0.000000	0.000000	0.000000	-0.001739	0.171160	0.003587
0.770000	0.000000	0.000000	0.000000	0.000000	0.000000	0.000000	-14.103310	183.794861	-12.826547	0.509121	-0.007351	-0.344382	0.000000	0.000000	0.000000	-0.001743	0.171552	0.003595
0.780000	0.000000	0.000000	0.000000	0.000000	0.000000	0.000000	-15.825405	208.934708	-15.841522	0.508961	-0.007537	-0.343108	0.000000	0.000000	0.000000	-0.001790	0.176149	0.003692
0.790000	0.000000	0.000000	0.000000	0.000000	0.000000	0.000000	-17.638636	230.374969	-18.461235	0.508846	-0.007706	-0.342242	0.000000	0.000000	0.000000	-0.001949	0.191792	0.004019
0.800000	0.000000	0.000000	0.000000	0.000000	0.000000	0.000000	-19.672733	247.886261	-20.451347	0.508813	-0.007807	-0.341720	0.000000	0.000000	0.000000	-0.002232	0.219665	0.004604
0.810000	0.000000	0.000000	0.000000	0.000000	0.000000	0.000000	-21.956732	261.557465	-21.685314	0.508894	-0.007825	-0.341458	0.000000	0.000000	0.000000	-0.002616	0.257430	0.005395
0.820000	0.000000	0.000000	0.000000	0.000000	0.000000	0.000000	-24.391409	271.685913	-22.119469	0.509098	-0.007767	-0.341381	0.000000	0.000000	0.000000	-0.003039	0.299052	0.006267
0.830000	0.000000	0.000000	0.000000	0.000000	0.000000	0.000000	-26.772097	278.719269	-21.804783	0.509406	-0.007649	-0.341415	0.000000	0.000000	0.000000	-0.003416	0.336105	0.007044
0.840000	0.000000	0.000000	0.000000	0.000000	0.000000	0.000000	-28.864002	283.199493	-20.854248	0.509777	-0.007489	-0.341497	0.000000	0.000000	0.000000	-0.003667	0.360775	0.007561
0.850000	0.000000	0.000000	0.000000	0.000000	0.000000	0.000000	-30.487381	285.698853	-19.400480	0.510155	-0.007301	-0.341579	0.000000	0.000000	0.000000	-0.003739	0.367937	0.007711
0.860000	0.000000	0.000000	0.000000	0.000000	0.000000	0.000000	-31.568007	286.770386	-17.576794	0.510478	-0.007097	-0.341632	0.000000	0.000000	0.000000	-0.003620	0.356229	0.007465
0.870000	0.000000	0.000000	0.000000	0.000000	0.000000	0.000000	-32.141819	286.885468	-15.508101	0.510694	-0.006890	-0.341632	0.000000	0.000000	0.000000	-0.003336	0.328280	0.006880
0.880000	0.000000	0.000000	0.000000	0.000000	0.000000	0.000000	-32.316692	286.341492	-13.306611	0.510785	-0.006691	-0.341576	0.000000	0.000000	0.000000	-0.002942	0.289447	0.006066
0.890000	0.000000	0.000000	0.000000	0.000000	0.000000	0.000000	-32.227821	285.249390	-11.074316	0.510755	-0.006512	-0.341474	0.000000	0.000000	0.000000	-0.002509	0.246889	0.005174
0.900000	0.000000	0.000000	0.000000	0.000000	0.000000	0.000000	-31.999281	283.607147	-8.893761	0.510622	-0.006358	-0.341349	0.000000	0.000000	0.000000	-0.002104	0.207033	0.004339
0.910000	0.000000	0.000000	0.000000	0.000000	0.000000	0.000000	-31.721176	281.370789	-6.822242	0.510413	-0.006230	-0.341216	0.000000	0.000000	0.000000	-0.001771	0.174280	0.003652
0.920000	0.000000	0.000000	0.000000	0.000000	0.000000	0.000000	-31.439299	278.535156	-4.903749	0.510162	-0.006126	-0.341083	0.000000	0.000000	0.000000	-0.001527	0.150235	0.003148
0.930000	0.000000	0.000000	0.000000	0.000000	0.000000	0.000000	-31.165106	275.175751	-3.171993	0.509891	-0.006042	-0.340949	0.000000	0.000000	0.000000	-0.001356	0.133421	0.002796
0.940000	0.000000	0.000000	0.000000	0.000000	0.000000	0.000000	-30.891546	271.458374	-1.643705	0.509615	-0.005973	-0.340808	0.000000	0.000000	0.000000	-0.001224	0.120448	0.002524
0.950000	0.000000	0.000000	0.000000	0.000000	0.000000	0.000000	-30.605179	267.621979	-0.311608	0.509342	-0.005916	-0.340656	0.000000	0.000000	0.000000	-0.001096	0.107850	0.002260
0.960000	0.000000	0.000000	0.000000	0.000000	0.000000	0.000000	-30.299345	263.943085	0.857892	0.509060	-0.005863	-0.340482	0.000000	0.000000	0.000000	-0.000942	0.092679	0.001942
0.970000	0.000000	0.000000	0.000000	0.000000	0.000000	0.000000	-29.981916	260.677368	1.917319	0.508754	-0.005812	-0.340285	0.000000	0.000000	0.000000	-0.000741	0.072920	0.001528
